<svg xmlns="http://www.w3.org/2000/svg" width="733" height="913" fill="none" viewBox="0 0 733 913">
  <path stroke="#18181B" stroke-linecap="round" stroke-width="2" d="M69.55 422.946c22.713-33.486 44.848-66.601 74.208-94.804 15.068-14.474 43.666-38.867 60.405-50.756 47.504-33.739 101.237-58.522 153.417-83.855 73.351-35.61 147.356-69.595 223.003-100.056 39.234-15.799 78.783-30.828 118.086-46.453M96.086 461.644c35.753-28.819 68.87-60.9 105.411-88.744 34.509-26.296 72.091-47.865 110.029-68.742 44.621-24.555 89.606-46.376 137.362-64.184 123.504-46.056 250.216-84.938 376.086-123.938 34.649-10.736 69.696-19.144 104.777-28.104m-801.6 413.515c7.811-7.418 17.22-16.777 25.854-23.305 18.955-14.332 40.815-24.401 62.102-34.642 83.349-40.099 171.104-69.142 256.709-103.861 84.817-34.399 168.549-72.15 255.821-100.125 39.567-12.682 80.072-22.285 120.401-32.171M167.954 529.089c23.117-14.966 45.583-31.542 69.216-45.586 38.367-22.799 80.071-36.958 122.869-48.951 62.431-17.495 125.048-27.551 189.681-32.19 96.772-6.946 194.078-6.462 291.038-8.761 16.03-.38 32.051-.508 48.084-.508M182.328 554.371c109.653-29.381 221.198-47.788 334.791-52.94 124.282-5.638 249.666 11.411 371.892 32.627 48.796 8.47 97.544 19.936 146.879 24.883M197.807 581.59c24.281 0 48.39-5.601 72.755-6.328 52.682-1.572 105.786-.809 158.438 1.191 75.286 2.859 150.087 13.432 224.349 25.561 50.058 8.176 97.344 19.871 141.707 44.419 15.983 8.844 32.047 15.669 49.56 20.863m-623.59-56.389c32.994 2.353 65.696 14.405 96.829 24.673 58.118 19.168 116.039 40.228 171.227 66.808 27.812 13.395 54.481 28.902 81.177 44.348C588.94 757.545 623.128 779.859 641 792c45 30.569 112.48 96.734 118 105M233.188 647.394c15.873 8.103 27.774 20.897 40.142 33.517 43.208 44.085 86.314 88.592 127.847 134.257 24.153 26.556 45.819 54.306 66.396 83.666 3.992 5.696 9.543 11.774 12.176 18.34M230.977 683.88c15.192 17.766 28.218 37.05 40.721 56.79 22.535 35.581 45.286 71.599 57.92 112.06 10.311 33.021 17.452 66.292 17.452 100.931M217.709 703.782c8.535 23.188 11.019 47.952 14.227 72.32 5.611 42.61 8.554 84.622 9.782 127.527.689 24.072 2.426 48.623.635 72.701-.381 5.119-.993 9.73-4.065 13.817m-46.427-260.935c1.523 24.993 2.19 49.697.641 74.756-3.343 54.054-9.17 108.668-33.017 158.065-8.413 17.426-18.324 33.862-30.388 49.037-2.16 2.71-5.35 5.6-6.475 8.93m37.593-269.78c-3.422 19.979-7.183 40.141-13.268 59.508-9.816 31.241-25.996 60.93-43.974 88.188C77.715 936.212 38.461 964.645 1 990.147m47.543-610.322c17.222-22.653 33.277-46.156 50.415-68.868 43.117-57.14 89.598-108.599 144.91-154.112 27.46-22.596 48.229-39.145 77.649-58.966 32.079-21.614 66.121-39.014 100.449-56.618 22.951-11.77 45.362-23.882 66.628-38.465M34.17 344.444c14.257-22.346 27.124-45.527 40.551-68.375 25.813-43.924 52.79-86.295 84.456-126.295 36.256-45.798 73.83-90.727 112.608-134.406C280.833 5.177 290.101-7.21 300.633-16M12.056 296.901c29.595-59.371 55.785-119.7 80.084-181.402 14.8-37.58 31.433-73.988 54.807-107.175" opacity=".04"/>
</svg>
