<svg xmlns="http://www.w3.org/2000/svg" width="565" height="565" fill="none" viewBox="0 0 565 565">
  <g clip-path="url(#a)">
    <g filter="url(#b)">
      <path fill="url(#c)" fill-opacity=".5" d="M487 437h406.325v375.401H487z" transform="rotate(171.009 487 437)"/>
    </g>
    <path fill="#EBEBEB" d="M565 432.112H0v.282h565v-.282Zm-87.507 7.695h-29.346v.283h29.346v-.283Zm-120.797 2.034h-9.82v.283h9.82v-.283Zm151.691 8.453h-21.685v.282h21.685v-.282Zm-430.745-8.588H59.28v.282h18.362v-.282Zm47.664 0H83.688v.282h41.618v-.282Zm208.428 4.768H227.876v.283h105.858v-.283Zm-65.924-64.76H49.618a6.451 6.451 0 0 1-6.44-6.452V68.546a6.452 6.452 0 0 1 6.44-6.396H267.81a6.452 6.452 0 0 1 6.452 6.452v306.66a6.452 6.452 0 0 1-6.452 6.452ZM49.618 62.376a6.17 6.17 0 0 0-6.158 6.17v306.716a6.168 6.168 0 0 0 6.158 6.169H267.81a6.182 6.182 0 0 0 6.17-6.169V68.546a6.18 6.18 0 0 0-6.17-6.17H49.618ZM512.24 381.714H294.037a6.466 6.466 0 0 1-6.452-6.452V68.546a6.463 6.463 0 0 1 6.452-6.396H512.24a6.45 6.45 0 0 1 6.43 6.396v306.716a6.452 6.452 0 0 1-6.43 6.452ZM294.037 62.376a6.18 6.18 0 0 0-6.17 6.17v306.716a6.178 6.178 0 0 0 6.17 6.169H512.24a6.184 6.184 0 0 0 6.17-6.169V68.546a6.183 6.183 0 0 0-6.17-6.17H294.037Z"/>
    <path fill="#F0F0F0" d="M240.543 348.187h-52.861v83.925h52.861v-83.925Z"/>
    <path fill="#F5F5F5" d="M73.563 432.112h114.119v-83.925H73.562v83.925Z"/>
    <path fill="#FAFAFA" d="M73.01 416.371h56.149v-31.572h-56.15v31.572Z"/>
    <path fill="#E6E6E6" d="M240.543 355.758H73.009v4.057h167.534v-4.057Z" opacity=".7" style="mix-blend-mode:multiply"/>
    <path fill="#F0F0F0" d="M243.458 345.735h-55.776v11.729h55.776v-11.729Z"/>
    <path fill="#F5F5F5" d="M70.648 357.464h117.034v-11.729H70.648v11.729Zm12.554-11.944h37.143v-58.975H83.202v58.975Z"/>
    <path fill="#F0F0F0" d="M200.541 286.545h-80.196v58.975h80.196v-58.975Z"/>
    <path fill="#F5F5F5" d="M200.925 312.276h-39.459v22.181h39.459v-22.181Z"/>
    <path fill="#E6E6E6" d="M83.19 294.715h117.735v-2.847H83.191v2.847Z" opacity=".7" style="mix-blend-mode:multiply"/>
    <path fill="#F5F5F5" d="M81.145 293.065h39.2v-8.237h-39.2v8.237Z"/>
    <path fill="#F0F0F0" d="M202.586 284.828h-82.241v8.237h82.241v-8.237Z"/>
    <path fill="#E6E6E6" d="M53.438 253.323H249.3V101.519H53.438v151.804Z"/>
    <path fill="#F5F5F5" d="M49.358 253.323h195.863V101.519H49.358v151.804Z"/>
    <path fill="#E6E6E6" d="M39.911 262.115h209.39v-8.792H39.911v8.792Z"/>
    <path fill="#F5F5F5" d="M35.324 262.115h200.36v-8.792H35.324v8.792Z"/>
    <path fill="#FAFAFA" d="M237.91 245.436V109.429H56.692v136.007H237.91Z"/>
    <path fill="#fff" d="m124.018 245.436 50.748-136.007h-51.754L72.263 245.436h51.755Zm37.402 0 50.749-136.007h-28.51l-50.737 136.007h28.498Z"/>
    <path fill="#F5F5F5" d="M151.375 245.436V109.429h-8.159v136.007h8.159Z"/>
    <path fill="#E6E6E6" d="M59.777 245.436V109.429h-3.085v136.007h3.085Zm94.683-.011V109.418h-3.085v136.007h3.085Z"/>
    <path fill="#F0F0F0" d="M323.259 432.112h145.013V76.716H323.259v355.396Z"/>
    <path fill="#F5F5F5" d="M323.259 432.112h138.143V76.716H323.259v355.396Z"/>
    <path fill="#F0F0F0" d="M454.124 424.044V84.773H330.536v339.271h123.588Z"/>
    <path fill="#fff" d="M357.17 237.616h-9.718a5.413 5.413 0 0 0-5.412 5.413v.565a5.413 5.413 0 0 0 5.412 5.413h9.718a5.413 5.413 0 0 0 5.413-5.413v-.565a5.413 5.413 0 0 0-5.413-5.413Z"/>
    <path fill="#F0F0F0" d="M332.435 424.044V84.773h-1.887v339.271h1.887Z"/>
    <path fill="#F5F5F5" d="M282.5 483.143c121.003 0 219.096-5.727 219.096-12.792 0-7.064-98.093-12.791-219.096-12.791s-219.096 5.727-219.096 12.791c0 7.065 98.093 12.792 219.096 12.792Z"/>
    <path fill="#fff" d="M190.179 173.534c.328 1.288 0 2.362-.633 2.407-.633.045-1.514-.949-1.842-2.26-.327-1.311-.056-2.35.633-2.407.689-.056 1.503.983 1.842 2.26Zm.948 9.482c.65-.153.93-1.326.626-2.62-.304-1.294-1.078-2.219-1.728-2.066-.65.152-.93 1.325-.626 2.619.304 1.294 1.078 2.219 1.728 2.067Z"/>
    <path fill="#FF8400" d="M212.124 401.523H100.807v65.574h111.317v-65.574Z"/>
    <path fill="#fff" d="M212.124 401.523H100.807v65.574h111.317v-65.574Z" opacity=".7"/>
    <path fill="#FF8400" d="M129.43 401.523h-28.623v65.574h28.623v-65.574Z" opacity=".3"/>
    <path fill="#fff" d="M182.619 401.523h-23.673v12.012h23.673v-12.012Zm-62.907 0h-9.187v12.012h9.187v-12.012Z" opacity=".7"/>
    <path fill="#FF8400" d="M205.886 447.785h-13.085v13.086h13.085v-13.086Zm-16.939 0h-13.085v13.086h13.085v-13.086Z" opacity=".3"/>
    <path fill="#FF8400" d="M109.248 401.523h75.62v-44.556h-75.62v44.556Z"/>
    <path fill="#fff" d="M109.248 401.523h75.62v-44.556h-75.62v44.556Z" opacity=".7"/>
    <path fill="#FF8400" d="M165.421 356.978h-56.173v44.556h56.173v-44.556Z" opacity=".3"/>
    <path fill="#fff" d="M129.295 365.137h16.08v-8.159h-16.08v8.159Zm42.736 0h6.238v-8.159h-6.238v8.159Z" opacity=".7"/>
    <path fill="#FF8400" d="M113.475 397.297h8.893v-8.893h-8.893v8.893Zm11.514 0h8.893v-8.893h-8.893v8.893Z" opacity=".3"/>
    <path fill="#FF8400" d="M240.419 462.181h75.789v-44.646h-75.789v44.646Z"/>
    <path fill="#fff" d="M240.419 462.181h75.789v-44.646h-75.789v44.646Z" opacity=".7"/>
    <path fill="#FF8400" d="M296.727 417.535H240.43v44.646h56.297v-44.646Z" opacity=".3"/>
    <path fill="#fff" d="M240.43 446.248h4.237v-12.712h-4.237v12.712Zm50.929.012h10.724v-12.713h-10.724v12.713Z" opacity=".7"/>
    <path fill="#FF8400" d="M305.789 457.537h3.571v-8.916h-3.571v8.916Zm4.622 0h3.571v-8.916h-3.571v8.916Z" opacity=".3"/>
    <path fill="#FFB573" d="m272.047 439.898-18.204 4.045 6.961 19.662 15.21-3.356-3.967-20.351Z"/>
    <path fill="#000" d="m272.048 439.909-18.216 4.045 3.898 11.007 16.544-3.662-2.226-11.39Z" opacity=".2"/>
    <path fill="#263238" d="M229.074 363.679c-7.651-26.272-26.725-53.686-16.205-78.704l52.602-.147s4.237 57.155 5.548 81.45c1.367 25.267 4.125 81.157 4.125 81.157l-20.758 4.52s-20.103-41.765-25.312-88.276Z"/>
    <path fill="#000" d="M210.768 311.078c2.565 13.967 9.582 28.25 14.859 42.386 6.351-26.691 5.571-58.071-14.859-42.386Z" opacity=".2"/>
    <path fill="#FF8400" d="M288.636 458.486s-4.848 2.181-10.78-1.265a2.626 2.626 0 0 0-2.26.067c-3.051 1.266-11.199 4.362-16.464 3.707a.71.71 0 0 0-.8.524.723.723 0 0 0-.003.346 50.283 50.283 0 0 1 1.526 8.486l4.825-1.028.621-1.706 2.543 1.051a117.25 117.25 0 0 0 23.346-6.102c.7-3.085-2.554-4.08-2.554-4.08Z"/>
    <path fill="#FFB573" d="m194.959 443.367-17.357.169-.757 20.465 14.498-.113 3.616-20.521Z"/>
    <path fill="#000" d="m194.959 443.378-17.368.158-.418 11.47 15.763-.136 2.023-11.492Z" opacity=".2"/>
    <path fill="#263238" d="M176.088 363.679c-1.401-26.272-3.311-65.54 5.492-77.642l54.048-1.209s-15.029 57.562-20.634 81.744c-5.831 25.199-20.126 84.75-20.126 84.75H176.11s-7.085-57.664-.022-87.643Z"/>
    <path fill="#FFB573" d="m257.843 198.948.825 1.966.972 2.26c.678 1.48 1.356 2.983 2.09 4.43a87.575 87.575 0 0 0 4.713 8.328c.836 1.288 1.706 2.542 2.61 3.684a37.618 37.618 0 0 0 2.723 3.243 25.547 25.547 0 0 0 5.65 4.52l-3.943-.87c1.952.3 3.923.459 5.898.474 2.148.03 4.296-.083 6.43-.339 2.26-.237 4.52-.621 6.78-1.13 1.13-.237 2.26-.486 3.458-.78l1.728-.418.848-.214a3.19 3.19 0 0 1 .723-.147l4.102.734a5.65 5.65 0 0 1 3.006 9.605l-.938.927-.836.802c-.565.52-1.13 1.028-1.718 1.514a43.846 43.846 0 0 1-3.616 2.746 54.341 54.341 0 0 1-7.966 4.52 52.458 52.458 0 0 1-8.961 3.13 46.086 46.086 0 0 1-9.854 1.356 7.427 7.427 0 0 1-2.847-.463l-1.13-.407a43.638 43.638 0 0 1-7.153-3.48 48.038 48.038 0 0 1-6.057-4.441 62.605 62.605 0 0 1-5.119-4.949c-1.571-1.718-2.972-3.492-4.328-5.289a68.127 68.127 0 0 1-3.718-5.492c-1.141-1.864-2.26-3.729-3.22-5.65-.961-1.921-1.921-3.842-2.757-5.819-.418-.995-.836-1.989-1.221-3.006l-.576-1.571-.282-.802-.317-.983a12.647 12.647 0 0 1 7.587-15.765 12.644 12.644 0 0 1 16.075 6.906l.339.87Z"/>
    <path fill="#FFB573" d="m297.936 235.989-2.52-6.859c.079-7.684 9.933-5.865 9.933-5.865l7.356-1.638a3.887 3.887 0 0 1 4.226 2.689l1.797 4.78a4.045 4.045 0 0 1-1.944 5.289l-6.486 2.26a7.908 7.908 0 0 1-3.865.463l-8.497-1.119Z"/>
    <path fill="#FF8400" d="M242.701 178.936c10.837 4.52 20.34 24.17 20.34 24.17-.497 4.746-11.413 18.001-21.04 21.402 0 0-7.503-3.118-12.227-13.367-6.034-13.267 1.435-36.997 12.927-32.205Z"/>
    <path fill="#FF8400" d="M236.599 177.546a218.26 218.26 0 0 0-48.217.768 16.275 16.275 0 0 0-13.56 19.379c7.503 37.754-.361 80.106 4.52 88.547 0 0 55.743.735 86.909-1.412 8.542-40.985-8.249-66.071-16.691-98.084-1.457-5.469-7.333-8.611-12.961-9.198Z"/>
    <path fill="#FFB573" d="M193.151 208.722c-1.65 2.927-3.481 6.023-5.232 9.04l-5.209 9.04a223.852 223.852 0 0 0-2.475 4.453c-.791 1.469-1.593 2.926-2.26 4.339-.667 1.412-1.345 2.813-1.876 4-.26.588-.486 1.13-.633 1.514l-.101.26v.102c-.068.147 0-.147-.102-.294l-.057-1.13c.078 2.522.396 5.03.95 7.492.587 2.825 1.31 5.797 2.158 8.769.847 2.972 1.718 6.034 2.633 9.107.915 3.074 1.887 6.204 2.712 9.244l.079.271a6.404 6.404 0 0 1-3.165 7.315 6.407 6.407 0 0 1-7.841-1.428 98.117 98.117 0 0 1-6.373-8.26c-.972-1.424-1.955-2.848-2.882-4.328a116.02 116.02 0 0 1-2.701-4.52 98.945 98.945 0 0 1-4.813-9.673 50.126 50.126 0 0 1-3.492-11.673 4.513 4.513 0 0 1 0-.678v-.485a23.568 23.568 0 0 1 .147-3.006c0-.407.101-.87.158-1.243l.192-1.062c.26-1.413.565-2.588.87-3.729.622-2.26 1.356-4.227 2.079-6.159.724-1.932 1.492-3.752 2.26-5.548.769-1.797 1.628-3.537 2.452-5.266a152.2 152.2 0 0 1 5.278-10.091c1.887-3.311 3.717-6.452 5.887-9.707a12.666 12.666 0 0 1 16.528-2.906 12.67 12.67 0 0 1 4.908 16.048l-.079.192Z"/>
    <path fill="#FF8400" d="M182.585 180.495c-10.723 4.814-19.673 24.284-19.673 24.284 1.051 6.78 16.227 21.289 24.16 24.023 0 0 6.621-5.83 9.706-19.413 3.537-15.605-8.396-27.651-14.193-28.894Z"/>
    <path fill="#FFB573" d="M229.006 180.337a10.17 10.17 0 0 0-4.859-4.611 9.415 9.415 0 0 1-.17-6.339l-23.73-7.571c1.921 7.91 3.39 14.057.497 17.877 4.667 2.847 13.233 7.91 22.6 7.706 9.368-.203 7.176-3.774 5.662-7.062Z"/>
    <path fill="#000" d="m223.74 170.122-17.831-1.051c5.582 5.955 14.034 8.203 17.887 5.774a9.491 9.491 0 0 1-.056-4.723Z" opacity=".2"/>
    <path fill="#FF8400" d="m223.842 187.377-3.854-3.187-5.186 2.599s3.288 3.051 9.04.588Z"/>
    <path fill="#000" d="m223.842 187.377-3.854-3.187-5.186 2.599s3.288 3.051 9.04.588Z" opacity=".3"/>
    <path fill="#263238" d="M228.802 141.962c.305 4.791-2.779 8.893-6.893 9.153-4.113.26-7.684-3.39-7.989-8.215-.305-4.825 2.78-8.893 6.893-9.153 4.113-.26 7.684 3.424 7.989 8.215Z"/>
    <path fill="#263238" d="M232.158 159.081c.306 4.792-2.779 8.894-6.893 9.153-4.113.26-7.684-3.39-7.989-8.215-.305-4.825 2.791-8.893 6.893-9.153 4.102-.26 7.684 3.413 7.989 8.215Z"/>
    <path fill="#FFB573" d="M196.292 148.991c2.012 10.418 3.628 17.458 10.724 21.311 14.114 7.673 21.199 1.277 22.6-9.435 1.232-9.65-2.26-25.064-13.854-28.182-11.424-3.074-21.492 5.887-19.47 16.306Z"/>
    <path fill="#263238" d="M223.83 157.07c12.159-2.52 10.464 9.334 7.537 13.56-2.576 3.763-8.158 7.017-17.854 2.983-10.079-4.181-7.39-11.39-10.61-15.741-1.13-1.582 1.401-8.068 3.051-4.667 3.559 7.368 12.837 1.91 17.876 3.865Z"/>
    <path fill="#263238" d="M200.857 158.053c5.65 3.39 6.487-2.339 5.097-4.791 2.26-2.633 4.192-11.583-2.079-12.43 3.017.802 12.599-.068 11.028-5.82 3.639 3.277 14.589 5.232 13.899-.587-.994-8.509-14-15.82-22.848-8.509-10.667-5.752-23.109 6.158-16.769 11.616-8.136 1.718-6.34 13.809-1.673 15.346-3.605 6.282 10.735 14.498 13.345 5.175Z"/>
    <path fill="#000" d="M212.982 149.07a5.27 5.27 0 0 0-4 .226c1.335.187 2.695.11 4-.226Zm-.011.96a4.273 4.273 0 0 0-3.458 1.13 8.588 8.588 0 0 0 3.458-1.13Zm9.775-11.04a48.44 48.44 0 0 0-10.035.215c5.594.09 10.035-.215 10.035-.215Zm1.457 1.04s-7.672.226-11.3 1.593a90.93 90.93 0 0 0 11.3-1.593Z" opacity=".2"/>
    <path fill="#FFB573" d="M193.23 160.765a10.724 10.724 0 0 0 7.209 4c3.775.396 4.622-2.666 3.39-6.034-1.13-3.028-4.904-6.972-8.452-5.865-3.548 1.108-4.271 5.131-2.147 7.899Z"/>
    <path fill="#263238" d="M216.271 149.217c.09.915.655 1.604 1.265 1.536.61-.067 1.006-.87.916-1.785-.091-.915-.667-1.616-1.277-1.548-.611.068-1.006.87-.904 1.797Zm9.548-.769c.091.915.656 1.616 1.266 1.537.61-.079 1.005-.87.915-1.785-.09-.916-.667-1.616-1.277-1.549-.61.068-1.006.871-.904 1.797Z"/>
    <path fill="#ED893E" d="m222.746 149.397 1.13 7.707a8.48 8.48 0 0 0 2.723-.283 1.02 1.02 0 0 0 .688-.795 1.013 1.013 0 0 0-.383-.979c-2.316-1.706-4.158-5.65-4.158-5.65Z"/>
    <path fill="#263238" d="M211.31 146.798a.568.568 0 0 1-.26-.079.526.526 0 0 1-.15-.151.518.518 0 0 1-.081-.197.527.527 0 0 1 .084-.409 5.469 5.469 0 0 1 4.283-2.554.564.564 0 0 1 0 1.13 4.348 4.348 0 0 0-3.39 2.068.544.544 0 0 1-.486.192Zm18.001-1.028a.538.538 0 0 1-.463-.203 4.34 4.34 0 0 0-3.537-1.707.519.519 0 0 1-.397-.118.532.532 0 0 1-.191-.368.566.566 0 0 1 .486-.598 5.393 5.393 0 0 1 4.52 2.101.555.555 0 0 1-.09.769.612.612 0 0 1-.328.124Z"/>
    <path fill="#EBEBEB" d="M201.886 174.608s8.124 9.04 18.08 9.559c-5.808 2.746-10.001 8.645-10.001 8.645s-10.588-2.588-12.938-15.82c1.57-1.842 4.859-2.384 4.859-2.384Z"/>
    <path fill="#FF8400" d="m223.842 187.377 4.373-3.91 5.559 1.65s-4.203 4.723-9.932 2.26Z"/>
    <path fill="#000" d="m223.842 187.377 4.373-3.91 5.559 1.65s-4.203 4.723-9.932 2.26Z" opacity=".3"/>
    <path fill="#EBEBEB" d="M224.147 175.726s3.876 4.52 4.068 7.741c4.61 1.785 8.87 7.639 8.87 7.639s-1.13-9.266-8.43-14.532a7.805 7.805 0 0 0-4.508-.848Z"/>
    <path fill="#FF8400" d="M174.393 470.34h3.774l1.017-1.537 1.978 1.548h22.769a10.165 10.165 0 0 0-.972-5.209s-6.78-.622-9.424-4.012a.838.838 0 0 0-.847-.339c-2.26.475-11.3 2.181-16.227.396a.81.81 0 0 0-1.028.355.8.8 0 0 0-.102.379c-.1 2.826-.413 5.64-.938 8.419Z"/>
    <path fill="#FFB573" d="M296.15 226.282c2.656-5.65 8.295-5.796 12.634-7.254.734-.249 2.045 1.356 1.209 2.486a6.486 6.486 0 0 1-4.102 2.927c-.056 1.954-2.158 7.232-7.695 7.107a7.981 7.981 0 0 1-2.046-5.266Z"/>
    <path fill="#fff" d="M225.65 160.584s-3.153-.723-12.046-.836c.881 1.887 3.164 3.3 7.718 3.39 3.661.17 4.328-2.554 4.328-2.554Z"/>
    <path fill="#FFB573" d="m181.263 272.228-6.712 2.882c-5.526 5.333 2.565 11.243 2.565 11.243l2.746 4.419a3.876 3.876 0 0 0 4.859 1.22l4.701-1.977a4.047 4.047 0 0 0 2.509-5.052l-1.729-4.181a7.98 7.98 0 0 0-2.328-3.13l-6.611-5.424Z"/>
    <path fill="#263238" d="M400.698 169.014c-6.882-11.085-4.158-17.617 3.39-18.927l30.182 11.356c10.735 12.961-10.17 12.204 1.424 22.532s-21.877 23.459-38.33 9.967c-16.452-13.492 10.204-13.843 3.334-24.928Z"/>
    <path fill="#FFC3BD" d="m446.847 461.289 9.481-2.102c-1.322-9.04-1.808-19.549-2.916-25.131l-10.949 1.525 4.384 25.708Zm-69.642 1.536 8.927-.079c.825-9.04 4.012-19.82 4.317-25.515l-11.029-.271-2.215 25.865Z"/>
    <path fill="#263238" d="M440.395 470.34c7.548-1.593 6.983-1.593 11.187-2.644 3.605-.893 4.576-.633 7.48-1.311 2.43-.576 1.842-2.882.52-5.413-.576-1.13-1.356-2.384-2.181-4.056a1.128 1.128 0 0 0-1.277-.622l-9.944 2.113a1.133 1.133 0 0 0-.847.769 11.804 11.804 0 0 1-7.481 7.028c-3.932 1.413-.463 4.78 2.543 4.136Zm-74.851 0c5.514 0 9.164-.497 13.447-.644 3.672-.124 4.169.644 7.91.644 2.452 0 3.141-2.757 2.52-4.836a44.29 44.29 0 0 1-1.537-4.826 1.018 1.018 0 0 0-1.029-.813h-10.26a1.305 1.305 0 0 0-.994.508 13.924 13.924 0 0 1-10.86 5.65c-4.181.328-2.226 4.317.803 4.317Z"/>
    <path fill="#FF8400" d="M384.403 263.606s-4.068 54.568-2.452 89.27c-1.729 32.533-4.215 98.197-4.215 98.197.181 1.661 8.939 1.006 10.464 0 0 0 18.871-45.426 14.091-98.197 20.736-55.042 18.419-89.27 18.419-89.27h-36.307Z"/>
    <path fill="#000" d="M404.969 285.506c3.232.531 11.899 6.689 13.029 10.577a289.33 289.33 0 0 1-9.537 38.951c-5.221-14.51-6.079-35.448-3.492-49.528Z" opacity=".2"/>
    <path fill="#FF8400" d="M395.297 263.606s15.006 61.597 22.204 91.835c7.548 31.765 23.029 73.564 26.205 94.457 1.977.656 8.215-.599 11.458-2.429 0 0 2.735-60.037-15.515-90.615 4.125-75.247-13.56-93.248-13.56-93.248h-30.792Z"/>
    <path fill="#263238" d="M441.92 445.785c.271 1.429.441 2.875.509 4.328a.88.88 0 0 0 .289.649.885.885 0 0 0 .671.232c4.34-.214 10.17-2.486 12.057-3.243a.878.878 0 0 0 .554-.87l-.214-4.102a.914.914 0 0 0-1.13-.836l-12.069 2.814a.894.894 0 0 0-.667 1.028Z"/>
    <path fill="#fff" d="M441.92 445.785c.271 1.429.441 2.875.509 4.328a.88.88 0 0 0 .289.649.885.885 0 0 0 .671.232c4.34-.214 10.17-2.486 12.057-3.243a.878.878 0 0 0 .554-.87l-.214-4.102a.914.914 0 0 0-1.13-.836l-12.069 2.814a.894.894 0 0 0-.667 1.028Z" opacity=".1"/>
    <path fill="#263238" d="M376.753 446.44c-.079 1.13-.248 3.153-.418 4.633a.912.912 0 0 0 .187.657.909.909 0 0 0 .593.338c3.862.339 7.747.317 11.605-.068a.907.907 0 0 0 .791-.689l.96-4.046a.896.896 0 0 0-.148-.764.892.892 0 0 0-.688-.366l-11.887-.474a.904.904 0 0 0-.995.779Z"/>
    <path fill="#fff" d="M376.753 446.44c-.079 1.13-.248 3.153-.418 4.633a.912.912 0 0 0 .187.657.909.909 0 0 0 .593.338c3.862.339 7.747.317 11.605-.068a.907.907 0 0 0 .791-.689l.96-4.046a.896.896 0 0 0-.148-.764.892.892 0 0 0-.688-.366l-11.887-.474a.904.904 0 0 0-.995.779Z" opacity=".1"/>
    <path fill="#FFC3BD" d="m396.63 214.982-.746 1.244-.701 1.13c-.463.723-.949 1.401-1.423 2.079-.961 1.367-1.989 2.666-3.029 3.943a75.367 75.367 0 0 1-6.78 7.221c-1.13 1.13-2.452 2.26-3.695 3.311a52.909 52.909 0 0 1-3.944 3.04 69.887 69.887 0 0 1-8.497 5.299l-.407.215a5.646 5.646 0 0 1-3.39.655 20.22 20.22 0 0 1-5.198-1.344 22.553 22.553 0 0 1-4.407-2.43 24.139 24.139 0 0 1-3.548-3.039 30.034 30.034 0 0 1-2.859-3.39 40.7 40.7 0 0 1-4.181-7.142 47.17 47.17 0 0 1-1.514-3.706 39.068 39.068 0 0 1-1.13-3.921 3.67 3.67 0 0 1 2.043-4.216 3.676 3.676 0 0 1 4.522 1.221l.215.305c.565.825 1.265 1.831 1.921 2.735a66.739 66.739 0 0 0 2.068 2.678 41.371 41.371 0 0 0 4.429 4.712 19.324 19.324 0 0 0 4.611 3.232 9.035 9.035 0 0 0 4.113.994l-3.842.87a75.304 75.304 0 0 0 6.531-4.893 74.117 74.117 0 0 0 6.012-5.65c1.91-1.989 3.763-4.056 5.48-6.215.87-1.13 1.684-2.169 2.509-3.265l1.13-1.65.554-.803.463-.689.294-.441a7.366 7.366 0 0 1 12.43 7.91h-.034Z"/>
    <path fill="#263238" d="M394.822 200.202c-7.82-.215-15.402 7.074-20.193 15.312 1.13 5.265 12.961 13.966 12.961 13.966s17.526-16.904 7.232-29.278Z"/>
    <path fill="#263238" d="M382.042 214.564a186.786 186.786 0 0 0 .282 19.063c.317 8.272.882 16.408 2.079 29.979h41.663c-.847-11.729.52-25.108 8.001-51.505a9.723 9.723 0 0 0-1.135-8.3 9.71 9.71 0 0 0-7.171-4.333 98.598 98.598 0 0 0-5.198-.396 133.581 133.581 0 0 0-18.916 0c-2.056.192-4.181.452-6.226.735a15.68 15.68 0 0 0-13.379 14.757Z"/>
    <path fill="#FFC3BD" d="M419.23 177.772c-1.65 6.09-3.673 17.243.282 21.3 0 0-5.763-.859-18 6.712-3.549-5.085-.916-6.712-.916-6.712 6.905-1.616 7.108-6.656 6.283-11.379l12.351-9.921Z"/>
    <path fill="#fff" d="M404.099 204.259c4.023.565 5.289 6.655 5.289 6.655s9.684-6.847 12.746-11.672a41.215 41.215 0 0 1-3.537-2.26s-12.147 4.949-14.498 7.277Zm-3.842-.656s-3.48.938-4.735 5.842c-.926-8.881 3.221-10.384 3.221-10.384a5.148 5.148 0 0 1 3.639-.531 4.32 4.32 0 0 0-1.972 2.156 4.323 4.323 0 0 0-.153 2.917Z"/>
    <path fill="#000" d="m414.201 181.817-7.311 5.865c.215 1.117.328 2.252.339 3.39 2.622-.385 6.396-3.232 6.871-5.944a9.192 9.192 0 0 0 .101-3.311Z" opacity=".2"/>
    <path fill="#FFC3BD" d="M424.439 165.568c-1.853 9.819-2.429 14.012-8.034 18.724-8.43 7.085-20.024 3.333-21.131-6.679-.994-9.04 2.192-23.571 12.317-26.826a12.822 12.822 0 0 1 12.768 2.438 12.823 12.823 0 0 1 4.08 12.343Z"/>
    <path fill="#263238" d="M424.688 170.72c-5.91 2.339-9.775-7.073-8.023-13.56-10.261 4.78-27.12-2.158-24.555-8.972 3.797 2.859 6.068 1.921 6.068 1.921s31.776-20.34 29.312-2.362c17.73 7.063 7.763 19.572-2.802 22.973Z"/>
    <path fill="#263238" d="M402.11 142.052c-1.672 1.13-.542 5.526 8.148 1.56l3.243-.814c-7.13 6.204-13.628 10.294-17.063 7.741-3.435-2.554-.622-9.628 5.672-8.487Zm6.758 25.188c-.125.836-.644 1.48-1.13 1.435-.486-.045-.87-.746-.757-1.571.113-.825.655-1.48 1.186-1.435.531.045.825.701.701 1.571Zm-9.978-.633c-.124.836-.655 1.469-1.187 1.435-.531-.034-.858-.745-.745-1.582.113-.836.644-1.469 1.186-1.423.543.045.802.734.746 1.57Z"/>
    <path fill="#263238" d="m398.314 165.093-1.876-.723s.78 1.638 1.876.723Z"/>
    <path fill="#ED847E" d="M401.432 167.771a24.649 24.649 0 0 1-3.672 5.119 3.321 3.321 0 0 0 2.825.768l.847-5.887Z"/>
    <path fill="#263238" d="M404.834 177.41c-.463.04-.928.04-1.39 0a.219.219 0 0 1-.163-.082.222.222 0 0 1-.041-.178.26.26 0 0 1 .272-.226 7.022 7.022 0 0 0 5.65-2.192.247.247 0 0 1 .339 0 .248.248 0 0 1 0 .339 7.28 7.28 0 0 1-4.667 2.339Z"/>
    <path fill="#FFC3BD" d="M426.439 172.89a6.774 6.774 0 0 1-4.271 3.548c-2.26.554-3.221-2.09-2.396-4.689.746-2.339 2.837-5.447 5.051-4.825 2.215.621 2.825 3.706 1.616 5.966Z"/>
    <path fill="#263238" d="M411.761 161.432a.544.544 0 0 1-.396-.136 4.624 4.624 0 0 0-3.695-1.22.52.52 0 0 1-.633-.384.56.56 0 0 1 .134-.388.56.56 0 0 1 .363-.189 5.831 5.831 0 0 1 4.701 1.492.445.445 0 0 1 .122.363.464.464 0 0 1-.201.326.617.617 0 0 1-.395.136Z"/>
    <path fill="#fff" d="M422.349 285.517c9.119-5.141 17.82-13.356 26.283-23.323-9.672-13.639-19.469-25.742-29.617-33.392-8.859 9.278-17.639 17.289-26.295 23.312 9.786 8.204 19.73 20.363 29.629 33.403Z"/>
    <path fill="#263238" d="M396.415 161.432a.426.426 0 0 1-.339-.079.5.5 0 0 1-.068-.69 5.17 5.17 0 0 1 4.023-2.135.446.446 0 0 1 .418.331.46.46 0 0 1 .012.188.533.533 0 0 1-.531.464 4.094 4.094 0 0 0-3.176 1.729.457.457 0 0 1-.339.192Z"/>
    <path fill="#FF8400" d="m427.506 285.645 23.737-21.276c.8-.716.867-1.945.151-2.744l-28.336-31.614a1.943 1.943 0 0 0-2.745-.15l-23.737 21.276a1.943 1.943 0 0 0-.151 2.744l28.336 31.614c.717.8 1.945.867 2.745.15Z"/>
    <path fill="#fff" d="m427.506 285.645 23.737-21.276c.8-.716.867-1.945.151-2.744l-28.336-31.614a1.943 1.943 0 0 0-2.745-.15l-23.737 21.276a1.943 1.943 0 0 0-.151 2.744l28.336 31.614c.717.8 1.945.867 2.745.15Z" opacity=".4"/>
    <path fill="#263238" d="m408.348 165.681-1.876-.712s.78 1.627 1.876.712Z"/>
    <path fill="#FFC3BD" d="m409.794 271.019.882-2.983a3.62 3.62 0 0 1 .842-1.465 3.61 3.61 0 0 1 1.418-.919l5.164-1.774a6.782 6.782 0 0 1 6.125.892l1.13.791c-1.13 5.04-6.069 9.662-6.069 9.662l-1.254 1.469a3.022 3.022 0 0 1-3.217.987 3.008 3.008 0 0 1-1.043-.558l-2.949-2.463a3.473 3.473 0 0 1-1.029-3.639Zm-70.41-63.551 3.062.475a3.612 3.612 0 0 1 2.679 1.955l2.44 4.892a6.714 6.714 0 0 1-.079 6.182l-.633 1.197c-5.141-.452-10.373-4.734-10.373-4.734l-1.627-1.051a3.028 3.028 0 0 1-.995-4.17l2.046-3.243a3.497 3.497 0 0 1 3.48-1.503Z"/>
    <path fill="#E0E0E0" d="M330.898 225.356a.304.304 0 0 1-.126-.031.306.306 0 0 1-.1-.082 3.672 3.672 0 0 1-.554-2.543 3.388 3.388 0 0 1 1.559-2.147.274.274 0 0 1 .198-.036.26.26 0 0 1 .164.115.27.27 0 0 1 .04.094.246.246 0 0 1 .001.101.253.253 0 0 1-.109.167 2.868 2.868 0 0 0-1.333 1.797 3.155 3.155 0 0 0 .474 2.147c.026.04.041.086.044.134a.274.274 0 0 1-.124.241.269.269 0 0 1-.134.043Z"/>
    <path fill="#263238" d="m336.74 211.31 4.136 4.52a.69.69 0 0 1 0 .972l-5.56 5.074a.69.69 0 0 1-.621.158l-3.605-.87a.685.685 0 0 1-.509-.577l-.621-3.627a.725.725 0 0 1 .215-.61l5.559-5.063a.697.697 0 0 1 .508-.206.681.681 0 0 1 .498.229Zm-5.435 9.13a.868.868 0 0 0 .613.284.88.88 0 0 0 .919-.847.878.878 0 0 0-.233-.634.876.876 0 0 0-.621-.262.882.882 0 0 0-.622.262.889.889 0 0 0-.314.598.88.88 0 0 0 .201.645l.057-.046Z"/>
    <path fill="#FF8400" d="M331 224.599a2.543 2.543 0 0 1-.159 5.006l-1.277 5.932-.576.373-.441-.689V234l.317-.949-.124-.621.18-.848v-1.333l.136-1.017a2.515 2.515 0 0 1-1.13-2.678 2.57 2.57 0 0 1 .4-.925 2.568 2.568 0 0 1 1.667-1.059 2.53 2.53 0 0 1 1.007.029Zm-.475 2.26a.883.883 0 0 0 .982-.686.881.881 0 0 0-.609-1.032.897.897 0 0 0-1.051.678.88.88 0 0 0 .678.983v.057Z"/>
    <path fill="#E0E0E0" d="M330.898 225.356a.245.245 0 0 1-.226-.136.246.246 0 0 1 .01-.295.244.244 0 0 1 .08-.066 3.22 3.22 0 0 0 1.311-1.752 2.888 2.888 0 0 0-.475-2.192.257.257 0 0 1-.035-.097.256.256 0 0 1 .126-.265.269.269 0 0 1 .196-.031.267.267 0 0 1 .165.111 3.375 3.375 0 0 1 .532 2.599 3.608 3.608 0 0 1-1.549 2.079.211.211 0 0 1-.135.045Z"/>
    <path fill="#FFC3BD" d="M438.078 210.18c.373.814.622 1.39.904 2.068.283.678.52 1.299.769 1.944.497 1.299.926 2.61 1.344 3.909a80.495 80.495 0 0 1 2.057 8.001 68.85 68.85 0 0 1 1.198 8.26 64.1 64.1 0 0 1 .181 8.475v.486a4.713 4.713 0 0 1-.136.915 19.96 19.96 0 0 1-1.977 4.814 38.345 38.345 0 0 1-2.351 3.605 59.854 59.854 0 0 1-5.096 6.011 95.33 95.33 0 0 1-5.503 5.21 73.748 73.748 0 0 1-5.91 4.689 3.706 3.706 0 0 1-5.187-5.119v-.079l4.012-5.808c1.322-1.944 2.633-3.865 3.853-5.797 1.22-1.932 2.384-3.865 3.39-5.706.461-.865.872-1.756 1.232-2.667a7.52 7.52 0 0 0 .519-1.955l-.146 1.401c-.193-2.26-.43-4.463-.837-6.723a90.22 90.22 0 0 0-1.469-6.78c-.587-2.26-1.243-4.52-1.977-6.713-.362-1.13-.757-2.26-1.13-3.299l-.599-1.616-.554-1.458-.147-.384a7.365 7.365 0 0 1 4.083-9.262 7.37 7.37 0 0 1 9.477 3.555v.023Z"/>
    <path fill="#263238" d="M426.146 199.524c6.78 1.04 9.503 3.108 15.04 16.735-2.509 5.085-14.283 9.944-14.283 9.944s-9.402-14.69-.757-26.679Z"/>
  </g>
  <defs>
    <linearGradient id="c" x1="484.775" x2="890.655" y1="624.701" y2="624.701" gradientUnits="userSpaceOnUse">
      <stop stop-color="#FF8400"/>
      <stop offset=".234" stop-color="#F6CA45"/>
      <stop offset=".49" stop-color="#F3EC58"/>
      <stop offset=".74" stop-color="#FF8400"/>
      <stop offset="1" stop-color="#F3EC58"/>
    </linearGradient>
    <clipPath id="a">
      <path fill="#fff" d="M0 0h565v565H0z"/>
    </clipPath>
    <filter id="b" width="617.209" height="591.497" x="-51.604" y="-12.393" color-interpolation-filters="sRGB" filterUnits="userSpaceOnUse">
      <feFlood flood-opacity="0" result="BackgroundImageFix"/>
      <feBlend in="SourceGraphic" in2="BackgroundImageFix" result="shape"/>
      <feGaussianBlur result="effect1_foregroundBlur_2360_1390" stdDeviation="39.302"/>
    </filter>
  </defs>
</svg>
