<svg xmlns="http://www.w3.org/2000/svg" width="419" height="915" fill="none" viewBox="0 0 419 915">
  <path stroke="#18181B" stroke-linecap="round" stroke-width="2" d="M28.887 387.516c9.24-29.486 18.244-58.645 30.188-83.48 6.13-12.745 17.763-34.224 24.573-44.693 19.324-29.709 41.183-51.532 62.411-73.839 29.839-31.357 59.945-61.283 90.718-88.105 15.961-13.912 32.05-27.146 48.038-40.904M39.682 421.592c14.544-25.376 28.016-53.626 42.881-78.144 14.038-23.155 29.327-42.148 44.76-60.531 18.153-21.622 36.453-40.836 55.88-56.518 50.242-40.555 101.789-74.793 152.993-109.134 14.096-9.453 28.353-16.857 42.624-24.747M52.725 456.641c3.178-6.532 7.006-14.773 10.518-20.521 7.711-12.62 16.604-21.486 25.264-30.504 33.906-35.31 69.605-60.884 104.43-91.456 34.504-30.29 68.566-63.532 104.069-88.165 16.096-11.168 32.574-19.624 48.98-28.329M68.918 480.981c9.404-13.179 18.543-27.775 28.157-40.141 15.608-20.076 32.574-32.544 49.984-43.104 25.397-15.405 50.87-24.26 77.163-28.345 39.367-6.116 78.952-5.69 118.395-7.715 6.522-.335 13.039-.447 19.561-.447M74.765 503.244c44.608-25.872 89.985-42.08 136.195-46.617 50.558-4.964 101.565 10.048 151.287 28.73 19.851 7.458 39.682 17.555 59.753 21.911M81.062 527.211c9.878 0 19.685-4.931 29.597-5.571 21.431-1.385 43.034-.713 64.454 1.048 30.626 2.517 61.056 11.827 91.266 22.508 20.364 7.199 39.6 17.497 57.647 39.113 6.502 7.788 13.037 13.798 20.161 18.371m-253.68-49.653c13.423 2.072 26.726 12.684 39.391 21.726 23.643 16.878 47.205 35.423 69.656 58.827 11.314 11.796 22.163 25.45 33.023 39.052 7.6 9.517 21.508 29.167 28.778 39.857 18.306 26.918 45.758 85.18 48.003 92.459M95.455 585.156c6.457 7.134 11.299 18.401 16.33 29.513 17.577 38.82 35.113 78.011 52.009 118.221 9.825 23.384 18.639 47.819 27.01 73.673 1.624 5.016 3.882 10.368 4.953 16.149M94.556 617.284c6.18 15.643 11.479 32.624 16.565 50.006 9.168 31.331 18.423 63.047 23.563 98.676 4.194 29.077 7.099 58.373 7.099 88.875M89.158 634.809c3.472 20.418 4.483 42.224 5.788 63.682 2.283 37.52 3.48 74.514 3.98 112.294.28 21.197.986 42.815.258 64.017-.155 4.508-.404 8.568-1.654 12.167M78.643 657.201c.62 22.008.891 43.761.26 65.827-1.36 47.597-3.73 95.688-13.43 139.185-3.423 15.344-7.455 29.817-12.362 43.177-.88 2.393-2.177 4.93-2.634 7.866M65.77 675.7c-1.393 17.592-2.923 35.346-5.398 52.4-3.993 27.509-10.575 53.652-17.889 77.654C32.208 839.476 16.24 864.513 1 886.969m19.34-537.423c7.007-19.947 13.538-40.643 20.51-60.642C58.39 238.589 77.299 193.276 99.8 153.2c11.171-19.897 19.62-34.47 31.588-51.924 13.05-19.031 26.898-34.353 40.863-49.855 9.337-10.364 18.453-21.03 27.105-33.87M14.494 318.391c5.8-19.676 11.034-40.089 16.496-60.208 10.5-38.678 21.475-75.987 34.357-111.21 14.75-40.327 30.035-79.89 45.81-118.352 3.68-8.974 7.451-19.88 11.735-27.621M5.498 276.527c12.04-52.28 22.693-105.403 32.578-159.735 6.02-33.092 12.787-65.15 22.296-94.373" opacity=".04"/>
</svg>
